<svg width="720" height="760" viewBox="0 0 720 760" fill="none" xmlns="http://www.w3.org/2000/svg">
  <rect width="720" height="760" rx="48" fill="#F4EFE8"/>
  <circle cx="560" cy="132" r="96" fill="#DCE6E0"/>
  <circle cx="144" cy="620" r="120" fill="#E9DED6"/>
  <rect x="88" y="84" width="544" height="592" rx="36" fill="#FFFCF7" stroke="#E5DBCF" stroke-width="2"/>
  <rect x="150" y="162" width="420" height="420" rx="32" fill="#ECE4DA"/>
  <circle cx="360" cy="290" r="108" fill="#D1C2B2"/>
  <path d="M232 548C232 468.471 296.471 404 376 404H344C423.529 404 488 468.471 488 548V582H232V548Z" fill="#6A6058"/>
  <path d="M306 274C306 239.758 333.758 212 368 212C402.242 212 430 239.758 430 274V328C430 362.242 402.242 390 368 390C333.758 390 306 362.242 306 328V274Z" fill="#6A6058"/>
  <rect x="144" y="108" width="146" height="36" rx="18" fill="#171614" fill-opacity="0.05"/>
  <rect x="306" y="108" width="132" height="36" rx="18" fill="#DCE6E0"/>
  <rect x="454" y="108" width="122" height="36" rx="18" fill="#171614" fill-opacity="0.05"/>
  <rect x="144" y="610" width="192" height="14" rx="7" fill="#171614" fill-opacity="0.10"/>
  <rect x="144" y="638" width="284" height="14" rx="7" fill="#171614" fill-opacity="0.08"/>
</svg>