<svg width="960" height="640" viewBox="0 0 960 640" fill="none" xmlns="http://www.w3.org/2000/svg">
  <rect width="960" height="640" rx="36" fill="#F6F2EB"/>
  <rect x="40" y="40" width="880" height="560" rx="28" fill="#FFFCF8" stroke="#E5DBCF" stroke-width="2"/>
  <rect x="78" y="78" width="804" height="72" rx="24" fill="#171614" fill-opacity="0.05"/>
  <rect x="104" y="102" width="180" height="24" rx="12" fill="#171614" fill-opacity="0.12"/>
  <rect x="78" y="180" width="402" height="372" rx="28" fill="#EEF3F0"/>
  <rect x="510" y="180" width="372" height="172" rx="28" fill="#E8DDD6"/>
  <rect x="510" y="380" width="372" height="172" rx="28" fill="#F0E8DD"/>
  <rect x="112" y="220" width="142" height="18" rx="9" fill="#5F7A6D"/>
  <rect x="112" y="256" width="220" height="16" rx="8" fill="#171614" fill-opacity="0.08"/>
  <rect x="112" y="288" width="196" height="16" rx="8" fill="#171614" fill-opacity="0.08"/>
  <rect x="112" y="340" width="334" height="108" rx="24" fill="#FFFCF8"/>
  <rect x="538" y="214" width="106" height="16" rx="8" fill="#171614" fill-opacity="0.08"/>
  <rect x="538" y="246" width="174" height="44" rx="18" fill="#5F7A6D"/>
  <rect x="538" y="414" width="120" height="16" rx="8" fill="#171614" fill-opacity="0.08"/>
  <rect x="538" y="448" width="292" height="18" rx="9" fill="#171614" fill-opacity="0.06"/>
  <rect x="538" y="484" width="248" height="18" rx="9" fill="#171614" fill-opacity="0.06"/>
</svg>