<svg width="960" height="640" viewBox="0 0 960 640" fill="none" xmlns="http://www.w3.org/2000/svg">
  <rect width="960" height="640" rx="36" fill="#F6F2EB"/>
  <rect x="40" y="40" width="880" height="560" rx="28" fill="#FFFCF8" stroke="#E5DBCF" stroke-width="2"/>
  <rect x="78" y="78" width="804" height="54" rx="18" fill="#171614" fill-opacity="0.05"/>
  <rect x="102" y="96" width="168" height="18" rx="9" fill="#5F7A6D"/>
  <rect x="304" y="96" width="98" height="18" rx="9" fill="#171614" fill-opacity="0.08"/>
  <rect x="418" y="96" width="78" height="18" rx="9" fill="#171614" fill-opacity="0.08"/>
  <rect x="512" y="96" width="92" height="18" rx="9" fill="#171614" fill-opacity="0.08"/>
  <rect x="78" y="164" width="254" height="388" rx="24" fill="#EEF3F0"/>
  <rect x="364" y="164" width="518" height="180" rx="24" fill="#E8DDD6"/>
  <rect x="388" y="196" width="162" height="18" rx="9" fill="#171614" fill-opacity="0.10"/>
  <rect x="388" y="232" width="304" height="16" rx="8" fill="#171614" fill-opacity="0.06"/>
  <rect x="388" y="264" width="248" height="16" rx="8" fill="#171614" fill-opacity="0.06"/>
  <rect x="78" y="164" width="254" height="94" rx="24" fill="#DCE6E0"/>
  <rect x="104" y="194" width="108" height="18" rx="9" fill="#5F7A6D"/>
  <rect x="104" y="226" width="72" height="14" rx="7" fill="#171614" fill-opacity="0.08"/>
  <rect x="364" y="378" width="244" height="174" rx="24" fill="#F0E8DD"/>
  <rect x="638" y="378" width="244" height="174" rx="24" fill="#EEF3F0"/>
  <rect x="392" y="412" width="136" height="16" rx="8" fill="#171614" fill-opacity="0.08"/>
  <rect x="392" y="444" width="168" height="48" rx="20" fill="#5F7A6D"/>
  <rect x="666" y="412" width="140" height="16" rx="8" fill="#171614" fill-opacity="0.08"/>
  <rect x="666" y="444" width="174" height="82" rx="20" fill="#E9DED6"/>
</svg>